<mxfile host="app.diagrams.net" agent="Mozilla/5.0 (Windows NT 10.0; Win64; x64) AppleWebKit/537.36 (KHTML, like Gecko) Chrome/141.0.0.0 Safari/537.36" version="28.2.7">
  <diagram name="Page-1" id="x2D_aI2xJPsc6fc1xaHS">
    <mxGraphModel dx="2350" dy="1282" grid="1" gridSize="10" guides="1" tooltips="1" connect="1" arrows="1" fold="1" page="1" pageScale="1" pageWidth="850" pageHeight="1100" math="0" shadow="0">
      <root>
        <mxCell id="0" />
        <mxCell id="1" parent="0" />
        <mxCell id="oBQ2v7aMEA5JQ9JHbkFP-1" value="液氮填充，测试结构安装" style="rounded=0;whiteSpace=wrap;html=1;" vertex="1" parent="1">
          <mxGeometry x="120" y="200" width="160" height="40" as="geometry" />
        </mxCell>
        <mxCell id="oBQ2v7aMEA5JQ9JHbkFP-2" value="" style="rounded=0;whiteSpace=wrap;html=1;" vertex="1" parent="1">
          <mxGeometry x="120" y="320" width="160" height="40" as="geometry" />
        </mxCell>
        <mxCell id="oBQ2v7aMEA5JQ9JHbkFP-3" value="" style="rounded=0;whiteSpace=wrap;html=1;" vertex="1" parent="1">
          <mxGeometry x="120" y="440" width="160" height="40" as="geometry" />
        </mxCell>
        <mxCell id="oBQ2v7aMEA5JQ9JHbkFP-4" value="" style="rounded=0;whiteSpace=wrap;html=1;" vertex="1" parent="1">
          <mxGeometry x="120" y="560" width="160" height="40" as="geometry" />
        </mxCell>
        <mxCell id="oBQ2v7aMEA5JQ9JHbkFP-5" value="" style="rounded=0;whiteSpace=wrap;html=1;" vertex="1" parent="1">
          <mxGeometry x="120" y="680" width="160" height="40" as="geometry" />
        </mxCell>
        <mxCell id="oBQ2v7aMEA5JQ9JHbkFP-6" value="" style="rounded=0;whiteSpace=wrap;html=1;" vertex="1" parent="1">
          <mxGeometry x="120" y="800" width="160" height="40" as="geometry" />
        </mxCell>
      </root>
    </mxGraphModel>
  </diagram>
</mxfile>
